<svg width="31" height="29" fill="none" xmlns="http://www.w3.org/2000/svg"><path fill="#A8E06F" d="M0 15h31v14H0z"/><path fill="#A8E06F" d="M0 15h31v14H0z"/><path d="M3.008 11V2.6h1.848v6.72h4.188V11H3.008Zm7.274-7.14V2.24h1.92v1.62h-1.92ZM10.33 11V4.568h1.824V11H10.33Zm3.537 0V4.568h1.824v.912c.42-.54.972-1.032 1.884-1.032 1.392 0 2.184.9 2.184 2.388V11h-1.824V7.412c0-.864-.396-1.308-1.104-1.308-.708 0-1.14.444-1.14 1.308V11h-1.824Zm7.476 0V2.24h1.824v4.668l2.136-2.34h2.184L25.04 7.1l2.532 3.9H25.46l-1.644-2.64-.648.684V11h-1.824ZM2.816 26.92v-8.352H4.64v.924c.444-.612 1.044-1.044 2.004-1.044 1.5 0 2.928 1.176 2.928 3.324v.024c0 2.148-1.404 3.324-2.928 3.324-.972 0-1.572-.444-2.004-.96v2.76H2.816Zm3.36-3.348c.852 0 1.572-.696 1.572-1.776v-.024c0-1.068-.72-1.776-1.572-1.776-.852 0-1.56.708-1.56 1.776v.024c0 1.068.708 1.776 1.56 1.776Zm7.894 1.572c-1.98 0-3.468-1.464-3.468-3.324v-.024c0-1.848 1.488-3.348 3.492-3.348 1.98 0 3.468 1.464 3.468 3.324v.024c0 1.848-1.488 3.348-3.492 3.348Zm.024-1.572c1.044 0 1.668-.792 1.668-1.752v-.024c0-.948-.684-1.776-1.692-1.776-1.044 0-1.668.792-1.668 1.752v.024c0 .948.684 1.776 1.692 1.776Zm7.044 1.548c-.912 0-1.896-.3-2.76-.972l.78-1.2c.708.516 1.416.768 2.028.768.528 0 .768-.192.768-.48v-.024c0-.396-.624-.516-1.332-.744-.9-.252-1.92-.684-1.92-1.932v-.024c0-1.308 1.056-2.04 2.352-2.04.816 0 1.692.276 2.4.744l-.696 1.26c-.636-.372-1.272-.6-1.74-.6-.444 0-.672.192-.672.444v.024c0 .336.612.552 1.308.768.9.288 1.944.732 1.944 1.908v.024c0 1.428-1.068 2.076-2.46 2.076Zm5.823-.012c-1.104 0-1.872-.444-1.872-1.932v-3.048h-.768v-1.56h.768v-1.644h1.824v1.644h1.512v1.56h-1.512v2.748c0 .42.192.624.588.624.324 0 .624-.072.9-.228v1.464c-.384.228-.828.372-1.44.372Z" fill="#000"/></svg>