<svg width="355" height="92" fill="none" xmlns="http://www.w3.org/2000/svg"><g clip-path="url('#clip0_290_2')"><path d="M345.139 0H193.935c-5.446 0-9.861 4.413-9.861 9.857v72.286c0 5.444 4.415 9.857 9.861 9.857h151.204c5.446 0 9.861-4.413 9.861-9.857V9.857C355 4.413 350.585 0 345.139 0Z" fill="#108ECB"/><path d="M6.627 72.286v-55.2h12.149v44.16h27.532v11.04H6.627Zm47.817-46.92V14.72h12.623v10.646H54.444Zm.316 46.92V30.018h11.991v42.268H54.76Zm23.253 0V30.018h11.991v5.993c2.761-3.548 6.39-6.781 12.386-6.781 9.151 0 14.358 5.914 14.358 15.692v27.364h-11.991V48.707c0-5.677-2.604-8.595-7.258-8.595-4.655 0-7.495 2.918-7.495 8.595v23.579h-11.99Zm49.151 0V14.72h11.991v30.675l14.043-15.377h14.357l-16.093 16.64 16.646 25.628h-13.885l-10.808-17.349-4.26 4.495v12.854h-11.991Zm70.338 0V14.72h11.991v21.291c2.761-3.548 6.39-6.781 12.386-6.781 9.151 0 14.358 5.914 14.358 15.692v27.364h-11.991V48.707c0-5.677-2.604-8.595-7.258-8.595-4.655 0-7.495 2.918-7.495 8.595v23.579h-11.991Zm63.194.788c-9.152 0-14.358-5.914-14.358-15.692V30.018h11.991v23.578c0 5.678 2.603 8.596 7.258 8.596 4.654 0 7.494-2.918 7.494-8.596V30.018h11.991v42.268h-11.991v-5.993c-2.761 3.548-6.39 6.781-12.385 6.781Zm60.275 0c-6.39 0-10.335-2.918-13.175-6.308v5.52h-11.991V14.72h11.991v21.37c2.919-4.022 6.864-6.86 13.175-6.86 9.861 0 19.249 7.728 19.249 21.843v.158c0 14.115-9.23 21.843-19.249 21.843Zm-3.077-10.172c5.601 0 10.334-4.574 10.334-11.671v-.158c0-7.018-4.733-11.67-10.334-11.67s-10.256 4.652-10.256 11.67v.158c0 7.018 4.655 11.67 10.256 11.67Z" fill="#000"/></g><defs><clipPath id="clip0_290_2"><path fill="#fff" d="M0 0h355v92H0z"/></clipPath></defs></svg>