<svg width="54" height="14" fill="none" xmlns="http://www.w3.org/2000/svg"><rect x="28" width="26" height="14" rx="1.5" fill="#108ECB"/><path d="M1.008 11V2.6h1.848v6.72h4.188V11H1.008Zm7.274-7.14V2.24h1.92v1.62h-1.92ZM8.33 11V4.568h1.824V11H8.33Zm3.537 0V4.568h1.824v.912c.42-.54.972-1.032 1.884-1.032 1.392 0 2.184.9 2.184 2.388V11h-1.824V7.412c0-.864-.396-1.308-1.104-1.308-.708 0-1.14.444-1.14 1.308V11h-1.824Zm7.476 0V2.24h1.824v4.668l2.136-2.34h2.184L23.04 7.1l2.532 3.9H23.46l-1.644-2.64-.648.684V11h-1.824Zm10.7 0V2.24h1.824v3.24c.42-.54.972-1.032 1.884-1.032 1.392 0 2.184.9 2.184 2.388V11H34.11V7.412c0-.864-.396-1.308-1.104-1.308-.708 0-1.14.444-1.14 1.308V11h-1.824Zm9.612.12c-1.392 0-2.184-.9-2.184-2.388V4.568h1.824v3.588c0 .864.396 1.308 1.104 1.308.708 0 1.14-.444 1.14-1.308V4.568h1.824V11H41.54v-.912c-.42.54-.972 1.032-1.884 1.032Zm9.169 0c-.972 0-1.572-.444-2.004-.96V11h-1.824V2.24h1.824v3.252c.444-.612 1.044-1.044 2.004-1.044 1.5 0 2.928 1.176 2.928 3.324v.024c0 2.148-1.404 3.324-2.928 3.324Zm-.468-1.548c.852 0 1.572-.696 1.572-1.776v-.024c0-1.068-.72-1.776-1.572-1.776-.852 0-1.56.708-1.56 1.776v.024c0 1.068.708 1.776 1.56 1.776Z" fill="#000"/></svg>